<svg width="36" height="24" viewBox="0 0 36 24" fill="none" xmlns="http://www.w3.org/2000/svg">
<path d="M2 14C3.10457 14 4 13.1046 4 12C4 10.8954 3.10457 10 2 10C0.89543 10 0 10.8954 0 12C0 13.1046 0.89543 14 2 14Z" fill="#F2F2F2"/>
<path d="M34.12 10H9.88C8.8417 10 8 10.8417 8 11.88V12.12C8 13.1583 8.8417 14 9.88 14H34.12C35.1583 14 36 13.1583 36 12.12V11.88C36 10.8417 35.1583 10 34.12 10Z" fill="#F2F2F2"/>
<path d="M34.12 20H1.88C0.841705 20 0 20.8417 0 21.88V22.12C0 23.1583 0.841705 24 1.88 24H34.12C35.1583 24 36 23.1583 36 22.12V21.88C36 20.8417 35.1583 20 34.12 20Z" fill="#F2F2F2"/>
<path d="M34.12 0H1.88C0.841705 0 0 0.841705 0 1.88V2.12C0 3.1583 0.841705 4 1.88 4H34.12C35.1583 4 36 3.1583 36 2.12V1.88C36 0.841705 35.1583 0 34.12 0Z" fill="#F2F2F2"/>
</svg>
